<svg width="180" height="242" viewBox="0 0 180 242" fill="none" xmlns="http://www.w3.org/2000/svg">
<path d="M179.911 71.8581C179.783 67.7344 179.545 63.619 179.167 59.5122C178.848 55.9211 178.416 52.3432 177.871 48.7785C177.736 47.9019 177.748 47.9019 176.877 47.9019H3.22279C3.06604 47.9019 2.90929 47.9019 2.75253 47.9019C2.24587 47.9019 2.24308 47.9019 2.17589 48.4092C1.93516 50.1963 1.69163 51.9805 1.4593 53.7648C1.00023 57.2515 0.683923 60.7524 0.44879 64.2589C0.193129 68.036 0.0466352 71.8187 0.00931244 75.607C-0.0610113 82.8441 0.267001 90.0796 0.991836 97.2802C1.38652 101.201 1.91277 105.108 2.54539 108.998C3.45233 114.581 4.59628 120.116 5.97722 125.603C9.49318 139.512 14.5289 152.986 20.9922 165.778C30.3796 184.402 42.6912 201.377 57.4518 216.05C65.2236 223.786 73.6337 230.844 82.5915 237.148C84.8308 238.723 87.1066 240.248 89.3963 241.737C89.819 242.018 90.1717 242.151 90.5692 241.737C90.6212 241.693 90.6774 241.656 90.7372 241.624C103.718 233.292 115.654 223.415 126.287 212.208C146.454 190.926 161.122 166.32 170.291 138.388C174.307 126.15 177.099 113.539 178.627 100.742C179.119 96.645 179.477 92.5372 179.699 88.4181C179.993 82.9019 180.088 77.3828 179.911 71.8581ZM169.378 78.5949C169.378 81.5686 169.252 84.5424 169.098 87.5133C169.079 87.9558 169.07 87.9587 168.505 87.9615H157.893C156.908 87.9615 155.933 87.9615 154.94 87.9615C154.81 87.9461 154.678 87.97 154.561 88.0302C154.444 88.0904 154.348 88.1843 154.285 88.2997C151.609 92.6256 147.918 96.2218 143.536 98.7713C143.452 98.8402 143.371 98.9136 143.295 98.9911H168.085C168.04 99.9889 167.886 100.894 167.766 101.81C167.466 104.087 167.139 106.362 166.73 108.623C166.638 109.127 166.629 109.127 166.17 109.136C165.991 109.136 165.812 109.136 165.633 109.136C155.11 109.136 144.588 109.136 134.069 109.136C133.807 109.103 133.542 109.118 133.285 109.178C133.179 109.319 133.26 109.46 133.285 109.57C134.06 112.135 134.685 114.739 135.278 117.349C135.391 117.926 135.61 118.475 135.925 118.97C135.983 119.092 136.078 119.193 136.196 119.257C136.314 119.321 136.449 119.346 136.583 119.328C136.739 119.317 136.896 119.317 137.053 119.328H164.502C164.603 119.652 164.454 119.892 164.395 120.151C163.703 123.088 162.94 126.001 162.106 128.889C161.941 129.453 161.938 129.453 161.339 129.453H138.581C139.722 130.499 141.059 131.304 142.514 131.821C141.341 132.28 140.21 132.179 139.102 132.246C138.075 132.287 137.047 132.268 136.023 132.19C135.221 132.108 134.436 131.899 133.699 131.57C132.584 131.15 131.544 130.55 130.62 129.794C130.189 129.436 129.764 129.416 129.207 129.492C129.797 130.573 130.506 131.584 131.32 132.506C132.75 134.028 132.571 136.077 131.527 137.593C131.088 138.222 130.569 138.79 129.985 139.285C129.632 139.565 129.378 139.951 129.257 140.387H158.254C158.288 140.602 158.247 140.823 158.139 141.013C157.02 144.099 155.799 147.149 154.531 150.176C154.478 150.377 154.354 150.551 154.182 150.665C154.01 150.779 153.803 150.826 153.599 150.796C146.233 150.783 138.869 150.783 131.505 150.796C131.252 150.756 130.993 150.78 130.752 150.867C130.878 151.994 131.032 153.122 131.135 154.272C131.328 156.36 131.39 158.455 131.44 160.552C131.44 160.665 131.44 160.777 131.44 160.887C131.437 160.921 131.44 160.955 131.452 160.987C131.463 161.018 131.482 161.047 131.506 161.07C131.53 161.094 131.559 161.111 131.591 161.122C131.623 161.132 131.656 161.135 131.69 161.13C131.869 161.13 132.048 161.13 132.227 161.13H149.297C149.378 161.372 149.213 161.524 149.129 161.694C147.511 164.884 145.77 168.013 143.992 171.108C143.918 171.265 143.797 171.394 143.647 171.48C143.497 171.565 143.324 171.601 143.152 171.584C139.323 171.567 135.496 171.584 131.676 171.584H130.914C130.886 171.853 130.939 172.125 131.068 172.362C131.562 173.909 132.251 175.386 133.117 176.757C134.237 178.507 134.399 180.362 134.002 182.335C133.982 182.422 133.976 182.51 133.957 182.659H136.493C136.532 182.927 136.367 183.042 136.272 183.181C134.016 186.433 131.642 189.599 129.195 192.708C129.075 192.877 128.914 193.013 128.726 193.1C128.539 193.188 128.332 193.226 128.126 193.21C124.543 193.19 120.963 193.195 117.38 193.21C116.577 193.21 115.77 193.238 114.967 193.21C114.868 193.213 114.771 193.238 114.682 193.282C114.593 193.326 114.515 193.389 114.452 193.466C113.612 194.221 112.809 194.999 111.955 195.721C109.836 197.533 107.44 198.782 104.66 199.205C102.246 199.603 99.771 199.089 97.71 197.762C96.6538 197.078 95.6959 196.251 94.8632 195.304C94.7736 195.202 94.684 195.104 94.6001 194.997C94.5161 194.89 94.3817 194.805 94.2082 194.923C94.1668 194.94 94.1299 194.966 94.1006 195C94.0713 195.034 94.0505 195.074 94.0398 195.118C94.0291 195.161 94.0289 195.207 94.0392 195.25C94.0495 195.294 94.07 195.335 94.099 195.369C94.894 196.778 95.6554 198.207 96.4811 199.597C96.761 200.093 97.2285 200.493 97.5868 200.955C98.1672 201.707 98.7345 202.459 99.2887 203.21C99.3619 203.334 99.467 203.435 99.5927 203.503C99.7183 203.571 99.86 203.603 100.003 203.597C103.895 203.585 107.79 203.585 111.686 203.597C111.981 203.59 112.269 203.512 112.526 203.368C115.871 201.693 119.394 200.403 123.026 199.523C123.159 199.465 123.307 199.451 123.449 199.484C123.098 199.974 122.704 200.431 122.273 200.851C122.092 200.986 121.878 201.069 121.654 201.091C116.493 202.531 111.614 204.849 107.227 207.943C105.128 209.408 103.198 211.105 101.475 213.003C101.334 213.176 101.146 213.305 100.935 213.375C98.6953 214.06 96.7359 215.255 94.894 216.675C92.3707 218.666 90.0994 220.961 88.1311 223.508C87.9995 223.727 87.8275 223.918 87.6244 224.072C87.5517 223.79 87.714 223.59 87.8036 223.378C88.5473 221.712 89.4952 220.146 90.6252 218.716C93.0004 215.688 95.7055 212.937 98.6897 210.517C99.2999 210.009 99.3111 210.004 98.8605 209.344C97.7964 207.86 96.5949 206.481 95.2719 205.226C91.213 201.203 86.7455 197.731 81.6817 195.078C78.9783 193.622 76.0816 192.562 73.0798 191.933C71.7161 191.698 70.3405 191.54 68.9593 191.459C63.778 191.011 58.7394 189.977 53.9808 187.795C52.9802 187.344 52.0154 186.816 51.0948 186.216C50.9129 186.098 50.7365 185.968 50.535 185.825C50.8149 185.72 50.9772 185.872 51.1564 185.934C54.8613 187.271 58.6727 188.287 62.5491 188.97C64.9261 189.423 67.3444 189.619 69.7627 189.554C71.7501 189.466 73.6256 189.92 75.4675 190.585C78.6614 191.735 81.6257 193.334 84.5537 195.061C89.5287 198.054 94.3228 201.342 98.9108 204.907C99.1152 205.062 99.3251 205.214 99.5322 205.37C99.5439 205.354 99.5524 205.337 99.5572 205.318C99.5621 205.299 99.5633 205.28 99.5607 205.261C99.5581 205.242 99.5518 205.223 99.5421 205.207C99.5324 205.19 99.5195 205.175 99.5043 205.164C97.1359 202.105 94.5341 199.237 91.7225 196.586C88.579 193.692 84.9764 191.561 81.0463 189.948C77.9028 188.655 74.7509 187.372 71.7306 185.794C65.4659 182.515 59.6072 178.648 54.5574 173.631C49.3378 168.499 45.1602 162.393 42.2577 155.653C42.233 155.592 42.2124 155.53 42.1961 155.467C42.2381 155.38 42.1961 155.247 42.3193 155.202C45.2053 160.839 49.1438 165.657 53.5161 170.141C56.8006 173.56 60.3757 176.683 64.2007 179.474C64.9117 179.987 65.6367 180.472 66.3869 180.923C67.0765 181.341 67.8072 181.685 68.5674 181.952C70.6221 182.668 72.5563 183.643 74.5018 184.624C78.3115 186.518 82.0596 188.528 85.7993 190.557C86.1655 190.769 86.5507 190.945 86.9498 191.084C86.7007 190.893 86.4544 190.698 86.2052 190.521C80.4865 186.273 75.2883 181.472 70.8096 175.891C67.7305 172.035 65.0488 167.914 63.0558 163.371C62.9214 163.066 62.8039 162.759 62.6891 162.474C62.8123 162.347 62.8431 162.438 62.8655 162.474C64.5618 165.592 66.6808 168.41 68.9229 171.139C73.3261 176.495 78.1323 181.47 83.1317 186.261C83.1933 186.321 83.2633 186.369 83.392 186.476C83.458 185.777 83.3963 185.072 83.2101 184.395C82.8895 183.058 82.3634 181.779 81.6509 180.604C80.7359 179.08 79.7446 177.604 78.681 176.182C76.3576 172.949 74.1603 169.631 72.3912 166.048C70.275 161.761 68.5031 157.336 67.5122 152.64C65.6479 143.817 66.9159 135.491 71.6214 127.756C71.9713 127.192 72.38 126.629 72.7663 126.087C72.8468 125.989 72.9328 125.895 73.0238 125.806C73.0091 126.109 72.9349 126.406 72.8054 126.679C71.5967 130.357 70.7143 134.136 70.1686 137.971C69.4688 143.158 69.4996 148.313 70.9244 153.39C72.4332 158.745 75.2687 163.241 79.7475 166.601C80.8263 167.417 81.997 168.102 83.2353 168.642C83.7819 168.899 84.3643 169.071 84.9624 169.152C85.2674 169.177 85.5594 169.287 85.8064 169.469C86.0533 169.651 86.2456 169.898 86.362 170.183C86.5446 170.544 86.647 170.94 86.662 171.345C86.677 171.75 86.6042 172.153 86.4488 172.526C85.5364 174.688 85.0497 177.007 85.0156 179.356C84.9899 182.714 85.965 186.003 87.8148 188.798C88.5055 189.88 89.3078 190.885 90.2081 191.797C90.3843 192.033 90.623 192.214 90.8967 192.319C90.1577 190.346 90.7036 188.624 91.8232 186.946C92.1927 187.772 92.5146 188.536 92.8729 189.28C93.6869 191.04 94.7464 192.673 96.0192 194.131C96.8076 195.027 97.7304 195.792 98.7541 196.4C100.529 197.438 102.612 197.807 104.632 197.44C106.802 197.082 108.686 196.11 110.511 194.76C110.197 194.625 110.015 194.799 109.839 194.861C108.513 195.377 107.061 195.462 105.685 195.104C104.837 194.887 104.063 194.444 103.446 193.821C103.236 193.616 103.071 193.37 102.961 193.097C102.805 192.671 102.908 192.387 103.342 192.251C103.697 192.139 104.016 191.932 104.265 191.654C104.514 191.375 104.684 191.035 104.758 190.667C105.548 187.781 105.007 185.219 102.827 183.104C101.858 182.166 100.837 181.289 99.8514 180.368C99.0212 179.611 98.2818 178.76 97.6484 177.831C97.1299 177.117 96.7943 176.285 96.6715 175.409C96.5623 174.403 97.0466 173.859 98.0487 173.879C98.6081 173.911 99.1585 174.036 99.6778 174.248C100.982 174.727 102.191 175.436 103.25 176.34C103.604 176.649 103.869 177.048 104.019 177.495C104.773 179.451 105.798 181.29 107.065 182.955C107.1 183.028 107.157 183.088 107.227 183.128C107.296 183.168 107.377 183.187 107.457 183.181C107.493 182.899 107.532 182.6 107.574 182.304C107.597 182.126 107.574 181.909 107.779 181.836C107.983 181.763 108.159 181.935 108.285 182.087C108.547 182.394 108.794 182.714 109.024 183.045C109.73 184.091 110.337 185.196 110.939 186.301C111.506 187.373 112.138 188.409 112.834 189.401C113.191 189.921 113.604 190.4 114.066 190.828C115.16 191.795 116.025 191.718 116.915 190.577C117.237 190.144 117.527 189.688 117.783 189.213C118.088 188.688 118.379 188.156 118.698 187.637C119.398 186.509 120.412 186.056 121.727 186.228C123.043 186.4 124.28 186.687 125.579 186.772C126.406 186.83 127.236 186.798 128.056 186.676C129.247 186.512 130.33 185.892 131.079 184.945C131.76 184.108 132.249 183.13 132.513 182.082C132.776 181.033 132.808 179.939 132.605 178.876C132.513 178.434 132.339 178.014 132.093 177.636C131.038 175.935 130.192 174.111 129.573 172.204C129.254 171.218 129.089 170.187 129.086 169.149C129.085 168.63 129.162 168.114 129.316 167.618C129.667 166.452 129.861 165.243 129.892 164.025C130.084 159.993 129.944 155.952 129.475 151.944C129.359 150.824 129.11 149.723 128.734 148.663C127.912 146.513 127.488 144.229 127.485 141.926C127.494 141.271 127.588 140.62 127.765 139.989C127.97 139.175 128.423 138.445 129.061 137.904C129.567 137.492 130.008 137.006 130.368 136.46C130.632 136.068 130.811 135.624 130.895 135.158C130.955 134.861 130.946 134.554 130.87 134.26C130.793 133.967 130.65 133.696 130.452 133.467C127.498 129.905 125.448 125.674 124.479 121.138C124.167 119.732 123.967 118.303 123.88 116.865C124.146 117.056 124.16 117.338 124.26 117.569C125.187 120.038 126.417 122.379 127.922 124.54C129.285 126.44 130.881 128.1 132.904 129.298C134.584 130.285 136.353 130.896 138.315 130.843C138.405 130.843 138.494 130.843 138.693 130.814C136.862 129.969 135.841 128.441 134.841 126.899C134.192 125.898 133.618 124.848 133.126 123.759C133.405 123.959 133.585 124.075 133.75 124.196C134.894 125.077 136.26 125.617 137.694 125.755C138.566 125.826 139.443 125.73 140.28 125.473C142.427 124.836 144.124 123.522 145.677 121.826C145.495 121.769 145.3 121.769 145.117 121.826C142.987 122.209 140.857 122.35 138.716 121.904C138.123 121.784 137.546 121.595 136.997 121.341C136.219 121.01 135.532 120.494 134.996 119.837C134.459 119.18 134.089 118.402 133.918 117.569C133.274 114.751 132.624 111.954 131.771 109.203C131.405 107.973 130.958 106.769 130.435 105.598C130.245 105.192 130.035 104.795 129.828 104.395C129.474 103.652 128.946 103.008 128.29 102.516C127.634 102.025 126.868 101.703 126.06 101.576C124.344 101.255 122.623 100.981 120.907 100.671C120.113 100.538 119.328 100.359 118.556 100.133C117.883 99.9529 117.262 99.6169 116.742 99.1518C116.275 98.7631 115.747 98.4562 115.18 98.2442C113.243 97.4245 111.251 96.7407 109.22 96.1978C109.005 96.1358 108.789 96.0822 108.571 96.0258C108.483 96.0094 108.405 95.9608 108.35 95.8895C108.296 95.8182 108.27 95.7292 108.277 95.6397C108.201 94.1908 108.224 92.7533 108.714 91.3665C109.241 89.8629 110.286 88.5991 111.658 87.8036C113.042 87.0135 114.55 86.469 116.118 86.1941C118.052 85.8215 120.011 85.6 121.979 85.5317C123.902 85.4415 125.825 85.3683 127.751 85.3908C132.191 85.4444 136.193 84.0604 139.883 81.6504C142.34 80.0437 144.432 78.0227 146.472 75.9171C149.112 73.1914 150.836 69.9555 152.071 66.4067C152.252 65.874 152.426 65.3384 152.597 64.8029C152.597 64.7691 152.58 64.7211 152.566 64.6704C152.333 64.7412 152.12 64.8668 151.945 65.0368C149.269 66.8831 146.539 68.6476 143.586 70.026C141.952 70.8185 140.218 71.3819 138.433 71.7003C136.411 72.0102 134.346 71.8502 132.395 71.2324C130.64 70.7053 128.907 70.1049 127.158 69.5637C123.367 68.392 119.43 67.775 115.465 67.7315C111.728 67.6723 108.05 68.0134 104.453 69.0789C97.9983 70.99 92.677 74.6515 88.2934 79.7477C86.544 81.7726 85.0257 83.9889 83.7671 86.3548C83.658 86.5057 83.6087 86.6922 83.6289 86.8778C83.6491 87.0634 83.7373 87.2347 83.8763 87.3583C84.9012 88.5249 86.0826 89.5419 87.3865 90.3799C89.9254 92.0317 92.705 93.1395 95.5854 94.0133C97.3634 94.5523 99.1734 94.9779 101.005 95.2873C100.988 95.5044 100.809 95.5015 100.677 95.5495C99.4427 95.992 98.1746 95.992 96.8954 95.8595C93.2564 95.4762 89.8386 94.2839 86.5383 92.7589C84.6 91.8795 82.7576 90.7998 81.0407 89.5371C80.4855 89.1549 79.9698 88.7177 79.5011 88.2321C78.4654 87.0708 77.1218 86.6846 75.6522 86.5944C73.6155 86.5164 71.5779 86.7232 69.5976 87.2089C64.7102 88.2884 60.0355 90.0276 55.428 91.95C54.1067 92.5137 52.7995 93.0774 51.5091 93.6412C51.5091 93.8667 51.6658 93.8695 51.789 93.9231C55.5539 95.5495 59.3833 96.9814 63.3917 97.889C65.1141 98.2877 66.869 98.5274 68.6346 98.605C70.7637 98.6659 72.8886 98.3804 74.9272 97.7593C75.5263 97.5846 76.1337 97.4267 76.7383 97.2604C78.1713 96.8729 79.6805 96.8729 81.1135 97.2604C84.1534 98.0384 86.7119 99.6845 89.164 101.686C88.8505 101.79 88.6909 101.598 88.5174 101.511C86.7046 100.577 84.7836 99.8737 82.7986 99.4167C80.2523 98.872 77.6224 98.8566 75.07 99.3716C73.6424 99.6535 72.2204 99.9523 70.804 100.274C68.9157 100.675 66.9616 100.642 65.088 100.175C61.2587 99.3012 57.5862 97.9566 53.936 96.5388C53.1886 96.257 52.4468 95.9441 51.6966 95.6397C51.6603 95.8426 51.8114 95.868 51.8982 95.9215C56.4889 99.0588 60.962 102.374 65.5163 105.564C66.91 106.584 68.3835 107.488 69.9223 108.268C71.037 108.856 72.2774 109.162 73.536 109.158C74.453 109.11 75.356 108.911 76.2093 108.569C77.0294 108.265 77.8104 107.879 78.597 107.498C80.1159 106.722 81.7541 106.21 83.4424 105.984C84.9848 105.807 86.4824 105.948 87.8708 106.717C88.0633 106.829 88.2501 106.95 88.4306 107.081C88.4754 107.112 88.4978 107.177 88.5622 107.273C87.9712 107.097 87.3701 106.959 86.7623 106.858C85.0824 106.707 83.3933 107.021 81.8777 107.766C80.6055 108.372 79.3879 109.087 78.2387 109.905C77.3122 110.537 76.3912 111.176 75.4591 111.799C74.9768 112.126 74.4606 112.4 73.9195 112.614C73.6312 112.739 73.3197 112.801 73.0058 112.794C72.692 112.788 72.3831 112.714 72.1 112.577C71.4926 112.295 70.8936 111.988 70.3114 111.656C66.9523 109.745 63.7444 107.614 60.5309 105.483C56.4945 102.807 52.4935 100.082 48.5279 97.3083C48.1854 97.058 47.7608 96.9491 47.3411 97.0039C43.9532 97.3557 40.6521 98.299 37.5858 99.7916C33.667 101.672 30.2239 104.225 27.0608 107.191C22.904 111.058 19.4134 115.455 16.2475 120.115C16.1316 120.348 15.9685 120.554 15.7688 120.721C15.5341 119.993 15.347 119.251 15.209 118.499C14.0277 113.271 13.0592 108.003 12.3398 102.689C11.821 98.869 11.417 95.0383 11.1278 91.1974C10.6659 85.123 10.5315 79.0402 10.6715 72.9518C10.7611 69.0535 10.9934 65.1609 11.3237 61.2767C11.3881 60.5128 11.4889 59.7517 11.5476 58.9879C11.57 58.706 11.6512 58.5707 11.9479 58.5989C12.1046 58.6074 12.2616 58.6074 12.4182 58.5989H167.615C168.401 58.5989 168.39 58.5989 168.471 59.3599C168.751 61.8968 168.902 64.4336 169.081 66.9705C169.081 67.1058 169.081 67.2524 169.101 67.3764C169.12 67.5793 169.031 67.6582 168.835 67.6582C168.639 67.6582 168.477 67.6582 168.298 67.6582H153.792C152.977 67.6582 153.165 67.5821 152.919 68.2868C152.401 69.7512 151.77 71.1724 151.032 72.5375C150.058 74.3386 148.723 75.8523 147.368 77.3575C147.147 77.5507 146.963 77.7828 146.825 78.0424H147.385C149.688 78.0424 151.995 78.0424 154.301 78.0424C154.477 78.0538 154.652 78.0224 154.812 77.9507C154.973 77.879 155.113 77.7693 155.222 77.6309C155.701 77.0671 156.197 76.5034 156.714 75.9819C156.972 75.717 157.274 75.3674 157.691 75.5478C158.108 75.7282 158.047 76.1398 158.089 76.4949C158.125 76.8078 158.139 77.1235 158.156 77.4392C158.19 78.0311 158.187 78.0311 158.805 78.0339H168.813C169.423 78.048 169.381 78.0396 169.378 78.5949ZM114.382 143.989C114.27 143.183 114.306 142.363 114.488 141.571C114.604 141.015 114.849 140.496 115.203 140.055C115.558 139.614 116.011 139.264 116.526 139.034C117.514 138.608 117.668 137.887 117.629 136.982C117.568 135.448 117.416 133.926 117.204 132.407C116.991 130.888 116.775 129.374 116.501 127.869C116.491 127.753 116.491 127.636 116.501 127.519C116.665 127.735 116.792 127.977 116.876 128.235C118.276 131.192 120.428 133.281 123.575 134.253C123.844 134.36 124.126 134.43 124.414 134.459C124.887 134.459 125.075 134.687 125.173 135.121C125.319 135.778 125.517 136.421 125.71 137.137C125.151 137.069 124.694 136.742 124.182 136.649C124.062 136.835 124.182 136.999 124.232 137.162C124.997 139.854 125.38 142.622 125.867 145.367C125.926 145.7 125.968 146.036 126.018 146.371C125.915 146.543 126.119 146.797 125.873 146.935C125.347 144.962 124.857 142.969 124.244 141.015C123.777 139.383 122.896 137.902 121.688 136.717C121.042 136.088 120.282 135.592 119.449 135.254C119.295 135.167 119.115 135.139 118.942 135.175C118.811 135.984 118.867 136.813 119.107 137.596C119.594 139.271 120.605 140.601 121.828 141.791L122.309 142.258C122.309 142.258 122.309 142.292 122.309 142.315C122.069 142.371 121.881 142.213 121.68 142.14C120.465 141.686 119.258 141.21 118.041 140.765C117.111 140.426 116.582 140.674 116.168 141.61C115.845 142.429 115.679 143.302 115.678 144.184C115.628 145.107 115.653 146.032 115.751 146.952C115.813 147.422 115.789 147.899 115.681 148.361C115.613 148.765 115.404 149.132 115.092 149.396C114.781 149.659 114.386 149.803 113.979 149.801C113.171 149.82 112.368 149.667 111.622 149.353C111.373 149.263 111.127 149.147 110.88 149.046C110.751 149.238 110.858 149.401 110.9 149.57C111.518 151.923 111.922 154.326 112.109 156.752C112.272 158.531 112.109 160.324 111.628 162.043C111.42 162.839 111.007 163.566 110.43 164.149C110.53 163.74 110.628 163.419 110.687 163.086C110.902 161.658 110.923 160.207 110.749 158.773C110.351 154.545 109.399 150.421 108.353 146.317C108.33 146.27 108.319 146.219 108.319 146.167C108.319 146.114 108.33 146.063 108.353 146.016L109.078 146.436C110.063 147.014 111.051 147.586 112.196 147.8C113.394 148.026 114.085 147.56 114.343 146.362C114.488 145.584 114.501 144.786 114.382 144.003V143.989ZM124.739 176.252C124.368 176 123.945 175.833 123.502 175.765C120.546 175.26 117.453 176.96 117.257 180.771C117.243 181.052 117.257 181.357 117.257 181.647C116.855 179.968 116.864 178.215 117.282 176.54C117.808 174.606 119.032 173.614 120.98 173.49C121.449 173.469 121.919 173.508 122.379 173.605C123.904 173.875 125.368 174.42 126.701 175.212C127.347 175.578 127.907 176.081 128.342 176.686C128.652 177.103 128.848 177.595 128.912 178.112C128.976 178.629 128.905 179.154 128.706 179.635C128.343 180.565 127.696 181.354 126.858 181.89C126.568 182.083 126.236 182.203 125.891 182.238C125.545 182.273 125.196 182.223 124.873 182.093C124.717 182.051 124.57 181.978 124.442 181.878C124.313 181.779 124.206 181.654 124.127 181.512C124.047 181.37 123.997 181.213 123.978 181.051C123.96 180.888 123.974 180.724 124.02 180.568C124.137 180.085 124.339 179.628 124.616 179.217C124.812 178.916 125.03 178.628 125.212 178.318C125.682 177.509 125.503 176.791 124.747 176.266L124.739 176.252Z" fill="white"/>
<path d="M86.0737 17.2209C82.8742 17.2379 79.6719 17.2209 76.4724 17.2209C76.0134 17.2209 76.0133 17.2209 76.0021 17.7199C76.0021 17.8326 76.0021 17.9454 76.0021 18.0581V42.1384C76.0091 42.2736 76.0091 42.4091 76.0021 42.5443C75.9686 42.8403 76.0861 42.9305 76.38 42.9305C78.7295 42.9192 81.079 42.9192 83.4284 42.9305C83.7084 42.9305 83.8567 42.8656 83.8231 42.5556C83.8091 42.4006 83.8231 42.2399 83.8231 42.082C83.8231 37.0084 83.8231 31.9347 83.8231 26.861V25.9984C84.103 26.2972 84.2794 26.4833 84.4502 26.6749C89.0651 31.9309 93.6773 37.1897 98.2866 42.4513C98.4221 42.6232 98.5972 42.7592 98.7967 42.8477C98.9962 42.9361 99.2141 42.9742 99.4315 42.9587C101.391 42.9333 103.373 42.9587 105.341 42.9587C106.371 42.9587 107.401 42.9587 108.42 42.9587C108.75 42.9587 108.842 42.8572 108.831 42.5359C108.809 41.927 108.831 41.3182 108.831 40.7093V17.9003C108.831 17.1618 108.87 17.2294 108.196 17.2294H101.615C101.035 17.2294 101.035 17.2294 101.03 17.8185V33.8147C100.77 33.5329 100.618 33.3778 100.47 33.2144C99.5799 32.2034 98.6916 31.1896 97.8052 30.173C94.1569 25.9975 90.5048 21.822 86.8491 17.6466C86.7639 17.5175 86.6488 17.4112 86.5137 17.3371C86.3786 17.2629 86.2276 17.223 86.0737 17.2209Z" fill="white"/>
<path d="M126.144 17.0819C123.819 17.4584 121.584 18.266 119.552 19.4637C117.139 20.9153 115.28 22.8715 114.233 25.5352C113.479 27.5241 113.236 29.6725 113.525 31.7815C113.791 34.4131 114.958 36.8697 116.825 38.7296C118.107 39.9897 119.618 40.988 121.276 41.6695C124.311 42.9633 127.51 43.4284 130.768 43.544C134.127 43.6351 137.486 43.4048 140.801 42.8562C142.93 42.5497 145.026 42.0362 147.057 41.3228C147.207 41.2952 147.34 41.2102 147.429 41.0856C147.518 40.961 147.555 40.8065 147.533 40.6548C147.516 36.7762 147.533 32.8977 147.533 29.0191C147.533 28.5259 147.533 28.5202 147.012 28.5202H138.894C136.211 28.5202 133.526 28.5202 130.838 28.5202C130.133 28.5202 130.231 28.5202 130.228 29.1516C130.228 30.482 130.228 31.8125 130.228 33.1429C130.228 34.121 130.066 33.9885 131.068 33.9885C133.587 33.9885 136.126 33.9885 138.656 33.9885C139.25 33.9885 139.253 33.9885 139.258 34.5523C139.258 35.1837 139.258 35.8151 139.258 36.4465C139.258 36.9792 139.258 36.9792 138.743 37.106C136.457 37.6848 134.101 37.9362 131.745 37.853C130.064 37.8329 128.398 37.525 126.819 36.9425C124.506 36.0293 122.914 34.4536 122.306 31.9703C122.074 30.9818 122.019 29.9595 122.144 28.9515C122.227 28.0163 122.51 27.1102 122.974 26.2954C123.437 25.4805 124.07 24.776 124.828 24.2301C125.444 23.7784 126.115 23.4089 126.824 23.1308C128.796 22.3746 130.903 22.0387 133.01 22.1443C134.269 22.1676 135.508 22.4557 136.649 22.9899C137.948 23.6128 138.83 24.5543 138.889 26.0905C138.889 26.3724 139.001 26.4541 139.25 26.4259C139.295 26.4231 139.34 26.4231 139.384 26.4259C141.937 26.4259 144.489 26.4259 147.04 26.4259C147.516 26.4259 147.519 26.4259 147.524 25.9552C147.561 24.525 147.158 23.1184 146.371 21.9272C145.658 20.8754 144.727 19.9917 143.642 19.3368C142.21 18.4507 140.643 17.8088 139.004 17.437C134.785 16.4419 130.41 16.3211 126.144 17.0819Z" fill="white"/>
<path d="M2.53153 42.933C5.01349 42.933 7.49826 42.933 9.98582 42.933C10.4421 42.933 10.4449 42.933 10.4533 42.4313C10.4533 42.296 10.4533 42.1494 10.4533 42.0254C10.4533 39.3645 10.4533 36.7036 10.4533 34.0428C10.4533 33.4988 10.4533 33.479 11.0131 33.479C12.7374 33.479 14.459 33.4565 16.1833 33.479C17.3471 33.4631 18.5107 33.529 19.6655 33.6763C21.5437 33.9751 22.3695 34.8207 22.5878 36.7206C22.5878 36.7657 22.5878 36.8108 22.5878 36.8559C22.6718 37.8452 22.7418 38.829 22.8454 39.8183C22.9078 40.7228 23.1128 41.6115 23.4528 42.451C23.5035 42.6073 23.6067 42.7408 23.7447 42.8288C23.8826 42.9167 24.0466 42.9536 24.2086 42.933C26.8734 42.9161 29.5271 42.933 32.2003 42.933C32.3431 42.933 32.5054 42.9809 32.6426 42.8287C32.6034 42.7385 32.5726 42.6568 32.5334 42.5807C31.8641 41.275 31.475 39.8421 31.3913 38.3751C31.34 37.2952 31.2241 36.2193 31.0442 35.1533C30.6747 33.2084 29.7958 31.644 27.9119 30.8097C27.8384 30.7634 27.7691 30.7105 27.7048 30.6519C28.0407 30.4743 28.3402 30.3249 28.6369 30.1642C32.8749 27.8641 33.0037 21.5925 28.7881 19.1205C27.976 18.6414 27.1094 18.2629 26.2072 17.993C24.1246 17.3757 21.9832 17.2319 19.8334 17.2263C14.1034 17.2066 8.35668 17.2263 2.64071 17.2263C2.06127 17.2263 2.06126 17.2263 2.05566 17.8154V42.3693C2.05846 42.9217 2.05847 42.933 2.53153 42.933ZM11.0579 22.9398H15.4219C16.8523 22.9398 18.2855 22.9117 19.7159 23.0047C20.4536 23.0396 21.1828 23.1781 21.8824 23.4162C22.669 23.6981 23.1645 24.2252 23.2261 25.0905C23.2876 25.9559 23.0217 26.6944 22.2491 27.1707C21.5432 27.5658 20.7615 27.8041 19.9566 27.8698C19.2467 27.9646 18.5313 28.0117 17.8152 28.0107C15.531 28.0107 13.2478 28.0107 10.9655 28.0107C10.4645 28.0107 10.4561 28.0107 10.4561 27.4949C10.4561 26.1645 10.4561 24.834 10.4561 23.5036C10.4561 22.9455 10.4561 22.9427 11.0579 22.9398Z" fill="white"/>
<path d="M57.782 17.2237C55.1199 17.2237 52.4635 17.2406 49.7958 17.2237C49.6016 17.2051 49.4065 17.2471 49.2367 17.3439C49.067 17.4407 48.9309 17.5877 48.8469 17.7649C43.9464 25.9899 39.0375 34.2103 34.1203 42.4259C34.0335 42.5725 33.8767 42.7078 33.9243 42.9079C33.9887 42.9235 34.0542 42.9339 34.1203 42.9389C36.9195 42.9389 39.7187 42.9389 42.5179 42.9389C42.6484 42.9513 42.7794 42.9218 42.8921 42.8544C43.0048 42.787 43.0933 42.6853 43.1449 42.564C43.9511 41.0588 44.788 39.5705 45.5886 38.0541C45.657 37.8916 45.7757 37.7557 45.9271 37.6668C46.0784 37.5779 46.2543 37.5407 46.4284 37.5608C51.0172 37.5739 55.6042 37.5739 60.1893 37.5608C60.3618 37.5445 60.5351 37.5823 60.6855 37.6691C60.8358 37.7559 60.9558 37.8874 61.029 38.0456C61.8688 39.5001 62.7701 40.932 63.6155 42.3892C63.6974 42.5681 63.8324 42.717 64.0018 42.8154C64.1713 42.9139 64.3668 42.957 64.5616 42.9389C67.4028 42.9163 70.244 42.9389 73.088 42.9389C73.2665 42.9663 73.449 42.9499 73.6199 42.891C73.6289 42.8376 73.626 42.7828 73.6115 42.7307C73.597 42.6785 73.5711 42.6303 73.5359 42.5894C68.5477 34.276 63.5698 25.9618 58.6021 17.6465C58.5259 17.499 58.406 17.3791 58.2591 17.3033C58.1121 17.2275 57.9453 17.1997 57.782 17.2237ZM49.1408 31.8472C50.5404 29.3639 51.8812 26.9455 53.2808 24.4368C54.6804 26.9229 56.0269 29.3358 57.4321 31.8472H49.1408Z" fill="white"/>
<path d="M176.572 17.2863H153.68C153.546 17.2863 153.4 17.2863 153.277 17.2863C153.154 17.2863 153.028 17.3568 153.028 17.5287C153.028 17.7007 153.028 17.8895 153.028 18.0699V38.6945C153.028 39.9122 153.028 41.1336 153.028 42.3588C153.028 42.9677 153.028 42.9677 153.658 42.9733H177.356C177.938 42.9733 177.944 42.9733 177.944 42.3814C177.944 41.0058 177.944 39.6303 177.944 38.2576C177.944 37.2654 177.944 37.2654 176.947 37.2654H161.977C161.283 37.2654 161.353 37.2654 161.353 36.6537C161.353 35.5713 161.353 34.489 161.353 33.4066C161.353 32.3242 161.207 32.5158 162.234 32.5158C166.844 32.5158 171.454 32.5158 176.065 32.5158C176.715 32.5158 176.65 32.5581 176.65 31.9521C176.65 30.4413 176.65 28.9304 176.65 27.4196C176.65 26.7769 176.678 26.8277 176.09 26.8277H162.058C161.271 26.8277 161.367 26.8981 161.361 26.1568C161.361 25.3225 161.361 24.4881 161.361 23.6538C161.361 22.9773 161.263 23.0055 162.013 23.0055H176.569C177.224 23.0055 177.219 23.1041 177.219 22.3459C177.219 20.8802 177.219 19.4173 177.219 17.9515C177.219 17.2018 177.289 17.2863 176.572 17.2863Z" fill="white"/>
<path d="M41.2642 8.06232C41.2642 9.9114 41.2642 11.7605 41.2642 13.6067C41.2642 14.0775 41.2643 14.0859 41.7457 14.0887C42.7982 14.0887 43.8479 14.0887 44.9004 14.0887C45.5694 14.0887 45.5246 14.1338 45.5246 13.4771V4.98992C45.7109 5.12888 45.8615 5.31054 45.9641 5.51984C47.4729 8.20608 48.9928 10.8754 50.4792 13.5842C50.5499 13.7567 50.6752 13.9009 50.8357 13.9942C50.9962 14.0875 51.1829 14.1247 51.3666 14.1C52.643 14.07 53.9185 14.07 55.1931 14.1C55.366 14.1168 55.5397 14.0767 55.688 13.9858C55.8364 13.8948 55.9515 13.7579 56.0161 13.5955C57.4493 10.9459 58.902 8.30473 60.352 5.66641C60.4752 5.44092 60.6151 5.22387 60.7495 5.00401L60.8503 5.03502V5.68615C60.8503 8.31695 60.8503 10.9543 60.8503 13.5983C60.8503 14.0775 60.8503 14.0831 61.3206 14.0859C62.5261 14.0859 63.7344 14.0859 64.9455 14.0859C65.4158 14.0859 65.4242 14.0859 65.4242 13.6039C65.4242 9.36645 65.4242 5.12804 65.4242 0.888686C65.4242 0.392592 65.4242 0.384133 64.9063 0.384133C63.0253 0.384133 61.1442 0.398227 59.2659 0.384133C59.0921 0.368309 58.9178 0.410145 58.7698 0.503267C58.6217 0.596389 58.5079 0.735693 58.4458 0.899959C57.7404 2.23039 57.0042 3.54392 56.2792 4.8659C55.3387 6.57968 54.3953 8.29064 53.4072 10.089C53.2336 9.80711 53.1049 9.58725 52.9845 9.37303C51.402 6.55431 49.8242 3.72713 48.2511 0.891503C48.1851 0.729937 48.0698 0.593692 47.9219 0.50248C47.7739 0.411268 47.601 0.369819 47.4281 0.384133C45.5694 0.406683 43.7135 0.384133 41.8549 0.384133C41.1495 0.384133 41.2642 0.41232 41.2642 1.0268C41.2624 3.36258 41.2624 5.70775 41.2642 8.06232Z" fill="white"/>
<path d="M22.4022 12.1475C23.1986 12.9154 24.1662 13.4799 25.2238 13.7937C28.4075 14.7929 31.8178 14.7929 35.0015 13.7937C37.2856 13.0834 39.5278 11.4316 39.7125 7.7447C39.8161 5.69831 39.3066 3.85487 37.7531 2.41169C36.9525 1.68516 36.0052 1.14185 34.9763 0.819115C33.3968 0.309676 31.7403 0.0854237 30.0833 0.156715C29.6578 0.156715 29.2435 0.131346 28.8096 0.156715C27.2178 0.213927 25.6521 0.58151 24.1993 1.2391C22.2063 2.20028 20.9634 3.75904 20.6079 5.97455C20.4455 6.97829 20.4682 8.00361 20.6751 8.99904C20.9154 10.2025 21.5185 11.302 22.4022 12.1475ZM25.3134 6.60031C25.5178 4.92599 26.5031 3.86897 28.1126 3.42361C29.3246 3.08295 30.6024 3.05677 31.8272 3.34751C33.9238 3.83514 34.9819 5.18813 34.9707 7.35008C34.9707 9.43876 33.9042 10.7833 31.8915 11.2625C30.7778 11.5249 29.62 11.5355 28.5017 11.2935C25.9628 10.7636 25.0335 8.90884 25.3134 6.60031Z" fill="white"/>
<path d="M84.4278 14.1171C86.5552 14.1171 88.6807 14.1171 90.8044 14.1171C92.928 14.1171 95.0536 14.1171 97.181 14.1171C97.7716 14.1171 97.7744 14.1171 97.7772 13.5533C97.7772 12.9219 97.7772 12.2905 97.7772 11.6592C97.7772 11.0954 97.7772 11.0954 97.1838 11.0954H89.332C89.1752 11.0954 89.0185 11.0954 88.8617 11.0954C88.635 11.1095 88.5398 11.0137 88.5426 10.7825C88.5426 10.1511 88.5426 9.51974 88.5426 8.88835C88.5426 8.60648 88.649 8.5332 88.9009 8.54447C89.2116 8.54447 89.5251 8.54447 89.8387 8.54447H96.5568C97.0578 8.54447 97.0634 8.54447 97.0662 8.02582C97.0662 7.39443 97.0662 6.76304 97.0662 6.13164C97.0662 5.50871 97.0662 5.50307 96.4504 5.50307H89.3348C89.178 5.50307 89.0213 5.50307 88.8645 5.50307C88.6462 5.50307 88.5398 5.42133 88.5454 5.18455C88.5454 4.78148 88.5454 4.37558 88.5454 3.96969C88.5454 3.45668 88.5454 3.44823 89.0605 3.44823C90.9611 3.44823 92.8618 3.44823 94.7653 3.44823C95.5014 3.44823 96.2404 3.43413 96.9794 3.44823C97.3069 3.44823 97.3993 3.3383 97.3909 3.01696C97.3713 2.32074 97.3909 1.6076 97.3909 0.922653C97.3909 0.42374 97.3909 0.415283 96.873 0.415283H84.3886C83.8903 0.415283 83.8819 0.415283 83.8819 0.939565C83.8819 5.15261 83.8819 9.3666 83.8819 13.5815C83.8735 14.1086 83.8791 14.1143 84.4278 14.1171Z" fill="white"/>
<path d="M164.459 13.7951C164.459 13.9868 164.527 14.077 164.739 14.077C164.896 14.077 165.053 14.077 165.21 14.077H175.55C176.199 14.077 176.849 14.077 177.509 14.077C177.848 14.077 177.988 13.9952 177.974 13.626C177.946 12.9495 177.974 12.273 177.974 11.5965C177.974 11.0525 177.974 11.0328 177.414 11.0328H171.505C170.811 11.0328 170.105 11.0328 169.422 11.0328C169.095 11.0328 168.989 10.9228 169.003 10.6015C169.025 10.1082 169.003 9.60932 169.003 9.11322C169.003 8.45364 168.921 8.48465 169.602 8.48465H174.439C175.222 8.48465 176.006 8.48465 176.787 8.48465C177.249 8.48465 177.257 8.48465 177.26 7.98856C177.26 7.33462 177.26 6.68067 177.26 6.01546C177.26 5.42353 177.26 5.41789 176.678 5.41507C174.528 5.41507 172.381 5.41507 170.24 5.41507C169.845 5.41507 169.352 5.59265 169.084 5.31641C168.815 5.04018 169.014 4.58637 169.014 4.20866C169.014 3.24465 168.885 3.36304 169.817 3.36304C172.233 3.36304 174.651 3.36304 177.07 3.36304C177.585 3.36304 177.588 3.36304 177.593 2.86131C177.593 2.20737 177.593 1.54967 177.593 0.888207C177.593 0.341375 177.593 0.324463 177.053 0.324463H165.033C164.49 0.324463 164.473 0.324463 164.473 0.888207C164.473 2.98533 164.473 5.08246 164.473 7.17958V12.8621C164.459 13.2088 164.465 13.502 164.459 13.7951Z" fill="white"/>
<path d="M4.21335 12.3725C5.22825 13.2323 6.44573 13.8147 7.74874 14.0638C9.94644 14.5182 12.2108 14.5393 14.4165 14.1258C15.4581 13.9655 16.4623 13.617 17.3808 13.097C18.1075 12.7077 18.7122 12.1222 19.127 11.4063C19.5418 10.6904 19.7504 9.87225 19.7293 9.04364C18.2346 9.04364 16.8042 9.04364 15.3766 9.04364C15.1666 9.04364 15.0575 9.0972 15.0127 9.32551C14.8223 10.3121 14.1141 10.7997 13.2436 11.0816C12.1087 11.4537 10.8894 11.4762 9.74178 11.1464C7.9083 10.6334 6.92856 9.48336 6.7914 7.58355C6.68783 6.11218 7.04334 4.76483 8.35897 3.91921C10.0945 2.81709 11.9475 2.79173 13.809 3.61197C14.0976 3.71514 14.347 3.90633 14.5226 4.15893C14.6982 4.41154 14.7912 4.713 14.7887 5.02133C14.7887 5.28347 14.9007 5.37085 15.1526 5.36803C16.4963 5.36803 17.8399 5.36803 19.1807 5.36803C19.4606 5.36803 19.5194 5.25246 19.5166 5.00442C19.517 4.48428 19.4147 3.96925 19.2158 3.48924C19.0169 3.00923 18.7252 2.5738 18.3577 2.20825C17.7134 1.57854 16.9407 1.09762 16.0932 0.79889C14.9355 0.375531 13.7229 0.123914 12.4934 0.0519311C10.4416 -0.0974609 8.41775 0.0519318 6.4835 0.810167C3.93342 1.80799 2.36306 3.62888 2.10273 6.42787C1.88999 8.7364 2.43305 10.7912 4.21335 12.3725Z" fill="white"/>
<path d="M67.4448 7.26838C67.4448 9.38806 67.4448 11.5077 67.4448 13.6274C67.4448 14.1038 67.4448 14.1151 67.9151 14.1151C69.1243 14.1151 70.3373 14.1151 71.5541 14.1151C72.0243 14.1151 72.0327 14.1151 72.0355 13.6415C72.0355 12.4464 72.0355 11.2512 72.0355 10.0561C72.0355 9.29223 71.9571 9.35706 72.7073 9.35424C74.0929 9.35424 75.4813 9.35424 76.8697 9.32605C78.2581 9.29786 79.5906 9.06673 80.8138 8.3846C82.233 7.59818 82.9664 6.4115 82.9048 4.74C82.9031 4.01198 82.6902 3.30033 82.2924 2.69243C81.8946 2.08454 81.3291 1.60686 80.6655 1.31807C80.3634 1.17303 80.052 1.04872 79.7333 0.946002C78.6024 0.587739 77.4227 0.409889 76.2371 0.418903C73.4855 0.399172 70.7311 0.418901 67.9795 0.39917C67.3888 0.39917 67.4588 0.399171 67.4588 0.977008L67.4448 7.26838ZM72.0187 3.83519C72.0187 3.55332 72.0803 3.42366 72.3882 3.42647C73.729 3.42647 75.0726 3.39547 76.4107 3.53922C76.6973 3.57482 76.979 3.6429 77.2504 3.74217C77.9082 3.97612 78.191 4.37638 78.1714 4.99086C78.1546 5.52078 77.8579 5.86749 77.2308 6.07889C76.6926 6.23541 76.1338 6.30859 75.5737 6.29593C75.151 6.29593 74.734 6.29593 74.3001 6.29593C73.6954 6.29593 73.0908 6.28183 72.4862 6.29593C72.1643 6.29593 71.9879 6.25083 72.0075 5.85621C72.0383 5.18817 72.0383 4.51168 72.0187 3.83519Z" fill="white"/>
<path d="M151.582 13.7546C151.635 13.8645 151.72 13.9554 151.825 14.0145C151.931 14.0736 152.053 14.098 152.173 14.0843C153.402 14.0702 154.634 14.0533 155.862 14.0843C156.057 14.1041 156.252 14.0598 156.419 13.9581C156.586 13.8565 156.716 13.7029 156.789 13.5206C159.155 9.33198 161.531 5.14901 163.916 0.971665C164.011 0.805361 164.176 0.658788 164.143 0.430472C163.958 0.306448 163.753 0.36846 163.56 0.36846C162.376 0.36846 161.189 0.393831 160.002 0.348731C159.809 0.327575 159.614 0.371388 159.448 0.473349C159.282 0.57531 159.154 0.729698 159.084 0.912475C157.642 3.60717 156.187 6.29529 154.72 8.97683C154.622 9.22917 154.469 9.45636 154.273 9.64205C154.177 9.4701 154.099 9.3348 154.026 9.19669C152.509 6.41461 150.986 3.63535 149.483 0.844824C149.418 0.68246 149.302 0.545775 149.153 0.455302C149.004 0.364828 148.83 0.325452 148.657 0.343093C147.294 0.37128 145.928 0.343093 144.562 0.343093C144.394 0.343093 144.212 0.28672 144.058 0.402287C144.056 0.44804 144.061 0.493885 144.075 0.537585C146.578 4.95546 149.08 9.36111 151.582 13.7546Z" fill="white"/>
<path d="M98.2944 3.14082C98.2944 3.32967 98.3532 3.43679 98.5744 3.42269C98.7311 3.42269 98.8879 3.42269 99.0446 3.42269C100.609 3.42269 102.174 3.42269 103.742 3.42269C104.058 3.42269 104.178 3.51289 104.173 3.83987C104.156 4.68548 104.173 5.55365 104.173 6.41054C104.173 8.75383 104.173 11.0962 104.173 13.4376C104.173 14.0944 104.064 14.1197 104.803 14.1197C105.964 14.1197 107.129 14.1197 108.29 14.1197C108.8 14.1197 108.808 14.1197 108.808 13.6039C108.808 11.2381 108.808 8.87316 108.808 6.50919C108.808 5.66358 108.808 4.79541 108.808 3.93852C108.808 3.43961 108.808 3.43679 109.334 3.43115H111.347C112.307 3.43115 113.27 3.41424 114.23 3.43115C114.594 3.43115 114.687 3.30713 114.678 2.96606C114.659 2.13454 114.678 1.30302 114.678 0.395392H98.8991C98.8095 0.395392 98.7199 0.395392 98.6192 0.395392C98.3924 0.375661 98.3028 0.468676 98.3056 0.705448C98.3028 1.51724 98.3 2.32903 98.2944 3.14082Z" fill="white"/>
<path d="M121.825 3.40031H126.925C126.958 3.39621 126.992 3.3998 127.024 3.41082C127.056 3.42183 127.085 3.43998 127.108 3.46388C127.132 3.48779 127.15 3.51682 127.161 3.54879C127.172 3.58075 127.176 3.6148 127.171 3.64835C127.171 3.82875 127.171 4.00915 127.171 4.18955V13.3166C127.171 13.4744 127.171 13.6323 127.171 13.7873C127.171 13.9423 127.239 14.0692 127.451 14.0692H131.547C131.743 14.0692 131.827 13.9902 131.827 13.7873C131.827 13.5843 131.827 13.4716 131.827 13.3137V4.11908C131.827 3.96123 131.827 3.80338 131.827 3.64554C131.821 3.61211 131.824 3.57793 131.834 3.54558C131.843 3.51323 131.86 3.48357 131.883 3.45884C131.906 3.43412 131.935 3.41498 131.966 3.40288C131.997 3.39079 132.031 3.38605 132.064 3.38903H132.535C134.099 3.38903 135.667 3.38903 137.232 3.38903C137.724 3.38903 137.73 3.38903 137.733 2.87039C137.733 2.21645 137.733 1.5625 137.733 0.897286C137.733 0.358911 137.733 0.353271 137.19 0.353271H121.752C121.276 0.353271 121.271 0.353273 121.265 0.82118C121.265 1.49767 121.265 2.17416 121.265 2.85066C121.268 3.39467 121.274 3.39749 121.825 3.40031Z" fill="white"/>
<path d="M115.625 7.21719C115.625 9.33686 115.625 11.4556 115.625 13.5734C115.625 14.0554 115.625 14.0639 116.093 14.0639C117.347 14.0639 118.598 14.0639 119.852 14.0639C120.367 14.0639 120.376 14.0639 120.376 13.5621C120.376 9.32465 120.376 5.08718 120.376 0.849702C120.376 0.373339 120.376 0.364879 119.908 0.362061C118.654 0.362061 117.403 0.362061 116.149 0.362061C115.553 0.362061 115.625 0.362061 115.625 0.925804V7.21719Z" fill="white"/>
<path d="M139.194 14.0753C140.333 14.0753 141.475 14.0753 142.615 14.0753C143.382 14.0753 143.309 14.1542 143.309 13.4017C143.309 11.3515 143.309 9.3023 143.309 7.25403C143.309 5.13811 143.309 3.02031 143.309 0.900634C143.309 0.384809 143.309 0.376354 142.805 0.373535C141.596 0.373535 140.388 0.373535 139.183 0.373535C138.659 0.373535 138.657 0.373535 138.654 0.937279C138.654 5.12965 138.654 9.31921 138.654 13.5059C138.659 14.0697 138.659 14.0753 139.194 14.0753Z" fill="white"/>
<path d="M156.314 77.7077C155.676 78.9296 154.748 79.9742 153.613 80.7491C153.131 81.0788 152.655 81.4171 152.16 81.7187C148.058 84.2025 143.689 86.2109 139.138 87.7056C136.482 88.5935 133.789 89.3264 130.973 89.4814C129.436 89.566 127.941 89.4533 126.547 88.6837C126.147 88.4829 125.726 88.3297 125.29 88.2271C123.354 87.7312 121.332 87.6801 119.373 88.0777C117.205 88.4308 115.127 89.2095 113.257 90.3693C112.662 90.7317 112.129 91.1865 111.675 91.7167C111.379 92.0299 111.189 92.4295 111.132 92.8583C111.084 93.4699 111.227 93.6531 111.77 93.7518C114.411 94.2329 117.023 94.8257 119.608 95.5304C122.127 96.2097 124.647 96.9398 127.015 98.0673C127.783 98.3835 128.489 98.8371 129.097 99.4061C129.643 99.9474 130.356 100.285 131.118 100.362C131.717 100.449 132.323 100.475 132.927 100.441C134.962 100.329 136.966 99.8781 138.855 99.1074C145.853 96.3309 151.01 91.4968 154.464 84.7855C155.554 82.6402 156.399 80.3773 156.983 78.0403C157.073 77.6879 157.243 77.3159 157.042 76.8677C156.711 77.0557 156.454 77.3522 156.314 77.7077Z" fill="white"/>
<path d="M49.4465 65.5138H48.7719C47.5206 65.5138 46.2526 65.4969 45.0125 65.5138C44.9381 65.5274 44.8617 65.5257 44.7879 65.5088C44.7141 65.4919 44.6445 65.46 44.5833 65.4152C44.5221 65.3705 44.4705 65.3136 44.4317 65.2482C44.3929 65.1828 44.3677 65.1101 44.3575 65.0346C43.974 63.7662 43.5514 62.4978 43.1483 61.2434C43.0979 61.0884 43.0839 60.9136 42.8991 60.8037C42.4345 62.2384 41.967 63.6478 41.5303 65.0628C41.5205 65.1327 41.4968 65.2 41.4607 65.2606C41.4247 65.3212 41.3769 65.3739 41.3203 65.4157C41.2637 65.4575 41.1994 65.4874 41.1312 65.5038C41.0629 65.5201 40.9921 65.5226 40.9229 65.511C39.6017 65.4912 38.2833 65.511 36.962 65.511C36.8025 65.511 36.6121 65.4292 36.4722 65.6012C36.6186 65.7742 36.7938 65.9201 36.99 66.0324L39.974 68.2169C40.3995 68.5298 40.3995 68.5355 40.2399 69.0428C39.848 70.2624 39.4552 71.4838 39.0614 72.7072C38.9668 72.8959 38.9326 73.1096 38.9635 73.3188C40.0831 72.5098 41.1468 71.7065 42.2413 70.9285C43.1147 70.3056 42.7648 70.2831 43.6885 70.9426C44.7802 71.7234 45.8579 72.5268 46.9412 73.3188C47.0308 73.1694 46.958 73.0708 46.9244 72.9665C46.512 71.6811 46.0996 70.3967 45.6871 69.1133C45.5024 68.5355 45.5052 68.5326 45.9671 68.1888C46.9804 67.4474 47.9965 66.7089 49.0042 65.962C49.1666 65.8464 49.3653 65.7872 49.4465 65.5138Z" fill="white"/>
<path d="M16.0065 68.2607C16.1317 68.3268 16.2259 68.4399 16.2689 68.5754C16.3118 68.711 16.3 68.8582 16.236 68.9851C15.8133 70.2422 15.4159 71.5219 15.01 72.7706C14.9643 72.8489 14.935 72.9359 14.9239 73.026C14.9128 73.1162 14.9202 73.2077 14.9456 73.2949C15.0324 73.2385 15.1079 73.1962 15.1779 73.1427C16.2976 72.3224 17.4173 71.5078 18.537 70.6735C18.586 70.6225 18.6448 70.582 18.7097 70.5543C18.7746 70.5266 18.8444 70.5124 18.9148 70.5124C18.9853 70.5124 19.0551 70.5266 19.12 70.5543C19.185 70.582 19.2437 70.6225 19.2928 70.6735C19.9086 71.1583 20.5524 71.6065 21.185 72.0828L22.9261 73.3513C22.9565 73.1329 22.9163 72.9106 22.8114 72.7171C22.4391 71.5388 22.05 70.3634 21.6693 69.188C21.4649 68.5651 21.4649 68.5623 22.008 68.1648L25.4174 65.6646L25.381 65.5321H25.0675C23.7239 65.5321 22.3831 65.5321 21.0423 65.5321C20.3816 65.5321 20.5244 65.597 20.3201 64.9881C19.903 63.7507 19.5139 62.5077 19.1136 61.2674C19.0632 61.1124 19.052 60.9405 18.8645 60.8418C18.4082 62.2512 17.9575 63.6605 17.5069 65.0332C17.3445 65.5293 17.3417 65.5321 16.8154 65.5321C15.497 65.5321 14.1758 65.5321 12.8574 65.5321C12.723 65.5321 12.5467 65.4335 12.4375 65.6533C12.6138 65.7886 12.7874 65.9352 12.9665 66.0564C13.9743 66.7865 14.982 67.5363 16.0065 68.2607Z" fill="white"/>
<path d="M69.7676 69.0879C69.594 68.5467 69.5912 68.5439 70.0475 68.2169C71.114 67.4361 72.1833 66.661 73.247 65.8746C73.3562 65.7928 73.5549 65.7562 73.5101 65.5448C73.4892 65.5328 73.4665 65.5242 73.443 65.5194H70.291C69.7564 65.5194 69.2218 65.4997 68.6871 65.4912C68.4466 64.987 68.259 64.459 68.1273 63.9156C67.7914 62.9036 67.4638 61.8861 67.1335 60.8713L67.002 60.8883C66.9712 60.97 66.9404 61.0517 66.9124 61.1335C66.4813 62.4583 66.0363 63.7803 65.6304 65.1107C65.6226 65.1759 65.6017 65.2388 65.569 65.2956C65.5362 65.3524 65.4922 65.4018 65.4398 65.4409C65.3874 65.48 65.3276 65.5078 65.2641 65.5228C65.2006 65.5377 65.1347 65.5395 65.0705 65.5279C64.3567 65.5081 63.6401 65.5279 62.9235 65.5279H60.5918C60.5918 65.7252 60.7066 65.7646 60.7905 65.8266C61.8934 66.6356 62.9851 67.4559 64.1048 68.2395C64.1766 68.2755 64.2406 68.3257 64.2928 68.3871C64.345 68.4485 64.3844 68.5199 64.4087 68.5969C64.4329 68.6739 64.4416 68.7551 64.4341 68.8356C64.4266 68.916 64.4032 68.9942 64.3651 69.0654C63.9257 70.3394 63.5254 71.6304 63.1111 72.9101C63.0719 73.0369 62.9991 73.1553 63.0831 73.316C63.2678 73.1863 63.4526 73.0623 63.6429 72.9326L66.6269 70.7481C67.0328 70.4493 66.9712 70.3366 67.5366 70.7481C68.4688 71.4444 69.4149 72.1237 70.3554 72.8114L71.0468 73.3132C71.0755 73.243 71.0878 73.1672 71.083 73.0915C71.0781 73.0157 71.0562 72.9421 71.0188 72.8763C70.5915 71.6135 70.1744 70.3507 69.7676 69.0879Z" fill="white"/>
<path d="M60.8582 81.1992C59.6266 81.1992 58.3949 81.1992 57.1632 81.1992C56.539 81.1992 56.539 81.1992 56.3431 80.5904C55.9045 79.2318 55.4669 77.8741 55.0303 76.5173C54.8287 76.5878 54.8399 76.7428 54.8007 76.864C54.392 78.1268 53.9843 79.3896 53.5775 80.6524C53.4039 81.1936 53.4011 81.1964 52.8497 81.1992C51.5285 81.1992 50.2072 81.1992 48.886 81.1992C48.7572 81.1992 48.5781 81.1006 48.4829 81.3204C48.5725 81.3909 48.6565 81.4642 48.746 81.529C49.8321 82.3239 50.9098 83.1329 52.0099 83.9052C52.0839 83.9416 52.1496 83.993 52.203 84.0561C52.2565 84.1191 52.2965 84.1925 52.3207 84.2718C52.3448 84.3511 52.3525 84.4345 52.3434 84.5169C52.3342 84.5993 52.3084 84.6789 52.2674 84.7508C51.842 85.96 51.4613 87.1834 51.0778 88.4151C51.0218 88.5955 50.8706 88.7731 50.9854 89.0183C52.1536 88.169 53.3143 87.3234 54.4676 86.4815C55.0722 86.039 54.9295 86.0897 55.4837 86.4815C56.6258 87.3102 57.7623 88.1474 58.9408 89.0183C58.9909 88.8389 58.9698 88.6469 58.882 88.4828C58.4789 87.2426 58.0646 86.0051 57.6811 84.7593C57.4992 84.1617 57.4348 84.3111 57.933 83.9418C58.9435 83.1949 59.9624 82.4592 60.973 81.7151C61.1437 81.591 61.3033 81.4501 61.5048 81.2866C61.2989 81.2076 61.0775 81.1777 60.8582 81.1992Z" fill="white"/>
<path d="M33.6163 84.6669C33.5518 84.5398 33.54 84.3921 33.5835 84.2562C33.6271 84.1204 33.7225 84.0075 33.8487 83.9425C34.9459 83.1673 36.0264 82.3668 37.1097 81.5663C37.2217 81.4845 37.3896 81.4451 37.3896 81.197H36.799C35.6373 81.197 34.4729 81.197 33.3112 81.197C32.2923 81.197 32.5554 81.3239 32.2391 80.3881C31.808 79.1027 31.3994 77.8089 30.9823 76.5151C30.7919 76.6025 30.7891 76.7491 30.7499 76.8731C30.3301 78.1754 29.9018 79.4748 29.4903 80.7855C29.4814 80.8502 29.4598 80.9125 29.4267 80.9687C29.3936 81.0249 29.3497 81.0738 29.2975 81.1127C29.2454 81.1515 29.1861 81.1795 29.123 81.195C29.06 81.2104 28.9945 81.213 28.9305 81.2027C27.5672 81.2027 26.204 81.2027 24.838 81.2027C24.7065 81.2027 24.5301 81.104 24.4321 81.3182C24.5049 81.3774 24.5693 81.4366 24.6421 81.4874C25.7618 82.3104 26.8814 83.1363 28.0011 83.9453C28.0646 83.976 28.1212 84.0194 28.1675 84.0728C28.2138 84.1262 28.2489 84.1886 28.2706 84.256C28.2924 84.3235 28.3003 84.3947 28.2939 84.4653C28.2875 84.5359 28.2669 84.6045 28.2335 84.6669C27.8975 85.597 27.612 86.5441 27.3097 87.4856C27.1558 87.9732 27.0074 88.4609 26.845 88.9851C27.0743 88.9081 27.2844 88.7822 27.4609 88.6159C28.4406 87.9056 29.4203 87.1868 30.3916 86.4737C31.0382 86.0001 30.8619 86.0593 31.4609 86.4906C32.603 87.3108 33.7367 88.1508 34.8732 88.9823L34.9543 88.8978C34.918 88.7681 34.8872 88.6384 34.848 88.5144C34.4533 87.2291 34.0446 85.9466 33.6163 84.6669Z" fill="white"/>
<path d="M21.9809 99.6401L25.4155 97.1258C25.3803 97.079 25.3329 97.0429 25.2785 97.0215C25.2242 97.0001 25.165 96.9943 25.1076 97.0046C23.7444 97.0046 22.3784 96.9849 21.0152 97.0046C20.9354 97.0178 20.8539 97.0148 20.7754 96.9957C20.6968 96.9766 20.6229 96.9418 20.5579 96.8935C20.493 96.8451 20.4383 96.7842 20.3971 96.7142C20.3559 96.6442 20.3291 96.5666 20.3182 96.486C19.9375 95.2401 19.5288 94.0027 19.1257 92.7625C19.0725 92.5962 19.0725 92.3989 18.8626 92.2917C18.3979 93.7265 17.9305 95.1527 17.4798 96.5875C17.4604 96.7175 17.3906 96.8345 17.2856 96.9128C17.1806 96.991 17.0491 97.024 16.9199 97.0046C15.5987 96.9821 14.2803 97.0046 12.9591 97.0046H12.458C12.5851 97.2074 12.7529 97.3812 12.9507 97.5148L15.8282 99.6176C16.3685 100.015 16.3685 100.015 16.1697 100.638C15.7779 101.856 15.3832 103.076 14.9941 104.302C14.9521 104.435 14.8345 104.584 14.9941 104.753L15.5343 104.364C16.5476 103.626 17.5693 102.893 18.5715 102.138C18.6163 102.091 18.6699 102.055 18.729 102.03C18.7881 102.005 18.8516 101.992 18.9158 101.992C18.9799 101.992 19.0434 102.005 19.1025 102.03C19.1617 102.055 19.2152 102.091 19.2601 102.138C20.335 102.947 21.4267 103.733 22.5127 104.525C22.6464 104.657 22.8159 104.746 22.9998 104.781C22.5379 103.358 22.0957 101.994 21.6562 100.63C21.4658 100.018 21.4658 100.018 21.9809 99.6401Z" fill="white"/>
<path d="M90.449 67.6594C90.1019 67.6594 89.9899 67.7524 89.9899 68.1104C89.9899 70.6811 89.9899 73.2518 89.9899 75.8224C89.9899 75.8816 89.9675 75.9577 90.1215 76.0226C94.271 72.1188 99.2922 69.2774 104.761 67.7383C104.721 67.7004 104.67 67.6767 104.616 67.6707C99.8944 67.6707 95.1722 67.6669 90.449 67.6594Z" fill="white"/>
<path d="M81.033 81.206C80.9739 81.2165 80.9133 81.2149 80.8549 81.2015C80.7964 81.1881 80.7412 81.1631 80.6924 81.1279C80.6437 81.0927 80.6024 81.0481 80.5709 80.9967C80.5395 80.9452 80.5187 80.888 80.5095 80.8283C80.3276 80.2025 80.1204 79.5852 79.9217 78.9651C79.6417 78.1364 79.3786 77.3077 79.0819 76.386C78.9839 76.6679 78.914 76.8173 78.858 76.9892C78.4698 78.1843 78.0817 79.3804 77.6935 80.5774C77.4948 81.1947 77.4948 81.1975 76.823 81.1975C75.5493 81.1975 74.2757 81.1975 73.002 81.1975C72.8677 81.1975 72.6885 81.0989 72.585 81.3159C72.7417 81.4399 72.8957 81.5668 73.058 81.6852C74.0881 82.4406 75.1126 83.2016 76.1539 83.9402C76.2185 83.9708 76.2761 84.0145 76.3232 84.0686C76.3703 84.1226 76.4059 84.1859 76.4276 84.2543C76.4494 84.3228 76.457 84.3951 76.4499 84.4666C76.4428 84.5381 76.4211 84.6074 76.3863 84.6702C76.2448 84.9064 76.1821 85.182 76.2071 85.4566C76.7158 85.5208 77.2192 85.6226 77.7131 85.761C78.6284 86.0655 79.5578 86.3051 80.322 86.9759C80.8538 87.4466 81.5704 87.3057 82.0519 86.7701C82.1499 86.678 82.2178 86.5581 82.2468 86.4263C82.2758 86.2944 82.2644 86.1568 82.2142 86.0316C82.0435 85.5666 81.9203 85.0874 81.744 84.6223C81.7135 84.5637 81.6952 84.4995 81.69 84.4336C81.6849 84.3677 81.693 84.3014 81.7139 84.2388C81.7348 84.1761 81.7681 84.1184 81.8118 84.069C81.8554 84.0196 81.9085 83.9796 81.9679 83.9514C82.9364 83.2637 83.8909 82.5421 84.8455 81.8487C85.1178 81.7085 85.3298 81.4729 85.4417 81.1863H84.7279C83.4935 81.1975 82.2618 81.1863 81.033 81.206Z" fill="white"/>
<path d="M125.011 67.6802C125.63 67.9087 126.262 68.1017 126.903 68.258C128.902 68.895 130.897 69.5546 132.907 70.155C134.97 70.7939 137.166 70.8582 139.261 70.341C141.358 69.7836 143.37 68.9446 145.243 67.8465C145.299 67.8155 145.355 67.7676 145.313 67.6802H125.011Z" fill="white"/>
<path d="M102.689 178.372C102.575 178.035 102.361 177.74 102.076 177.527C101.156 176.811 100.129 176.247 99.0336 175.855C98.7393 175.735 98.427 175.667 98.1099 175.652C98.2101 176.193 98.4197 176.707 98.7257 177.163C99.1692 177.839 99.6804 178.467 100.251 179.038C101.371 180.202 102.617 181.231 103.787 182.341C103.908 182.48 104.067 182.581 104.245 182.631C104.422 182.681 104.61 182.678 104.786 182.623C104.734 182.391 104.628 182.175 104.478 181.992C103.769 180.845 103.17 179.633 102.689 178.372Z" fill="white"/>
<path d="M42.8845 92.316C42.3891 93.8578 41.8964 95.3997 41.3813 97.0007L44.2925 96.2594L43.0021 92.2935L42.8845 92.316Z" fill="white"/>
<path d="M105.167 193.202C105.111 193.204 105.058 193.224 105.015 193.259C104.972 193.294 104.942 193.342 104.929 193.397C104.909 193.504 105.007 193.552 105.083 193.591C105.263 193.691 105.45 193.779 105.643 193.853C107.322 194.465 108.867 194.113 110.345 193.191H105.382C105.31 193.188 105.238 193.192 105.167 193.202Z" fill="white"/>
<path d="M36.4875 97.1342C36.6724 97.2597 36.8483 97.3982 37.0138 97.5486C37.652 98.2222 38.3154 98.3012 39.1412 97.8304C39.7458 97.4922 40.4428 97.3231 41.2406 97.0271H36.4819C36.4875 97.0919 36.4875 97.1342 36.4875 97.1342Z" fill="white"/>
<path d="M133.204 87.9731H128.087C129.036 88.4919 132.006 88.4779 133.204 87.9731Z" fill="white"/>
<path d="M127 177.451C126.975 179.044 125.852 179.988 125.295 181.327C127.238 180.568 127.918 179.097 127 177.451Z" fill="white"/>
</svg>
